<svg xmlns="http://www.w3.org/2000/svg" xmlns:xlink="http://www.w3.org/1999/xlink" width="2000" zoomAndPan="magnify" viewBox="0 0 1500 1499.999933" height="2000" preserveAspectRatio="xMidYMid meet" version="1.0"><defs><clipPath id="039df7f0c3"><path d="M 189.253906 120.21875 L 1310.503906 120.21875 L 1310.503906 1379.46875 L 189.253906 1379.46875 Z M 189.253906 120.21875 " clip-rule="nonzero"/></clipPath></defs><g clip-path="url(#039df7f0c3)"><path fill="#ffffff" d="M 606.136719 1157.972656 C 620.390625 1162.425781 629.296875 1176.675781 627.515625 1190.929688 C 627.515625 1192.710938 628.40625 1193.601562 628.40625 1194.492188 C 628.40625 1228.34375 641.769531 1258.628906 664.039062 1280.898438 C 686.304688 1303.167969 716.59375 1316.527344 750.441406 1316.527344 C 783.402344 1316.527344 814.578125 1303.167969 835.957031 1280.898438 C 858.226562 1258.628906 872.476562 1228.34375 872.476562 1194.492188 L 872.476562 1067.113281 C 872.476562 1065.332031 872.476562 1063.550781 872.476562 1062.660156 C 872.476562 1060.875 872.476562 1059.09375 872.476562 1058.203125 L 872.476562 929.933594 C 872.476562 896.972656 858.226562 865.796875 835.957031 844.417969 C 814.578125 822.148438 783.402344 807.898438 750.441406 807.898438 C 716.59375 807.898438 686.304688 822.148438 664.039062 844.417969 C 641.769531 866.6875 628.40625 896.972656 628.40625 929.933594 L 628.40625 1035.933594 C 636.421875 1038.605469 644.441406 1041.28125 652.457031 1043.953125 L 655.128906 1043.953125 L 655.128906 1044.84375 C 662.253906 1046.625 669.382812 1047.515625 676.507812 1049.296875 L 677.398438 1049.296875 C 700.558594 1053.75 725.5 1056.421875 750.441406 1056.421875 C 767.367188 1056.421875 781.621094 1070.675781 781.621094 1087.601562 C 781.621094 1105.414062 767.367188 1119.667969 750.441406 1119.667969 C 721.046875 1119.667969 693.433594 1116.105469 665.820312 1110.761719 L 664.929688 1110.761719 C 636.421875 1105.414062 609.699219 1097.398438 584.757812 1086.710938 L 582.085938 1085.820312 C 509.933594 1056.421875 448.46875 1008.320312 402.148438 947.75 C 345.140625 872.921875 312.179688 780.28125 312.179688 681.40625 C 312.179688 560.261719 361.175781 450.695312 440.453125 371.417969 L 442.234375 369.636719 C 521.511719 291.25 630.1875 243.144531 750.441406 243.144531 C 870.695312 243.144531 980.261719 292.140625 1059.539062 371.417969 L 1060.429688 371.417969 C 1139.710938 450.695312 1188.703125 560.261719 1188.703125 681.40625 C 1188.703125 769.59375 1161.089844 854.21875 1113.878906 925.480469 C 1070.230469 990.503906 1008.765625 1043.953125 934.832031 1078.691406 L 934.832031 1194.492188 C 934.832031 1245.265625 914.34375 1291.585938 880.496094 1325.4375 C 846.644531 1358.394531 801.214844 1379.773438 750.441406 1379.773438 C 699.667969 1379.773438 653.347656 1358.394531 619.5 1325.4375 L 619.5 1324.546875 C 589.210938 1295.148438 569.613281 1255.066406 566.050781 1210.527344 C 457.378906 1173.113281 365.628906 1103.632812 299.710938 1015.445312 C 229.339844 921.023438 189.253906 804.332031 189.253906 681.40625 C 189.253906 526.414062 251.609375 385.671875 353.15625 284.121094 C 454.707031 182.574219 595.449219 120.21875 750.441406 120.21875 C 904.546875 120.21875 1045.289062 182.574219 1146.835938 284.121094 C 1248.386719 385.671875 1310.738281 526.414062 1310.738281 681.40625 C 1310.738281 781.171875 1284.015625 877.378906 1235.914062 961.109375 C 1186.921875 1044.84375 1117.441406 1116.105469 1030.144531 1166.878906 C 1015.894531 1174.894531 996.296875 1170.441406 987.386719 1155.296875 C 979.371094 1140.15625 983.824219 1120.558594 998.96875 1112.542969 C 1076.464844 1068.003906 1138.820312 1004.757812 1181.578125 929.933594 C 1224.332031 856 1248.386719 770.484375 1248.386719 681.40625 C 1248.386719 543.335938 1192.265625 418.628906 1102.296875 328.660156 C 1012.328125 238.691406 887.621094 183.464844 750.441406 183.464844 C 612.371094 183.464844 487.664062 238.691406 397.695312 328.660156 C 307.726562 418.628906 252.5 543.335938 252.5 681.40625 C 252.5 790.972656 288.128906 894.300781 350.484375 978.035156 C 411.949219 1061.765625 501.027344 1125.902344 606.136719 1157.972656 Z M 565.160156 1007.429688 L 565.160156 929.933594 C 565.160156 879.160156 585.648438 832.839844 619.5 799.878906 C 653.347656 766.03125 698.777344 745.542969 750.441406 745.542969 C 801.214844 745.542969 846.644531 766.03125 880.496094 799.878906 C 914.34375 833.730469 934.832031 880.050781 934.832031 929.933594 L 934.832031 1007.429688 C 986.496094 978.925781 1029.253906 937.949219 1061.324219 890.738281 C 1102.296875 830.167969 1125.457031 757.121094 1125.457031 681.40625 C 1125.457031 577.1875 1083.589844 483.65625 1015.894531 415.957031 C 947.304688 347.367188 853.773438 305.5 750.441406 305.5 C 647.113281 305.5 553.582031 347.367188 485.882812 414.175781 L 484.992188 415.957031 C 416.402344 483.65625 374.535156 577.1875 374.535156 681.40625 C 374.535156 766.03125 403.039062 846.199219 452.03125 909.445312 C 482.320312 949.53125 520.621094 982.488281 565.160156 1007.429688 Z M 750.441406 463.167969 C 786.074219 463.167969 819.03125 478.3125 843.082031 501.472656 C 866.242188 525.523438 881.386719 558.480469 881.386719 594.109375 C 881.386719 630.632812 866.242188 663.589844 843.082031 686.75 L 840.410156 688.535156 C 817.25 711.691406 785.183594 725.945312 750.441406 725.945312 C 713.921875 725.945312 680.960938 710.800781 657.800781 686.75 C 633.75 663.589844 618.609375 630.632812 618.609375 594.109375 C 618.609375 558.480469 633.75 525.523438 657.800781 502.363281 C 680.960938 478.3125 713.921875 463.167969 750.441406 463.167969 Z M 798.542969 546.007812 C 786.074219 534.429688 769.148438 526.414062 750.441406 526.414062 C 730.84375 526.414062 713.921875 534.429688 701.449219 546.007812 C 689.871094 558.480469 681.851562 575.40625 681.851562 594.109375 C 681.851562 613.707031 689.871094 630.632812 701.449219 643.105469 C 713.921875 654.683594 730.84375 662.699219 750.441406 662.699219 C 768.257812 662.699219 785.183594 655.574219 796.761719 643.996094 L 798.542969 643.105469 C 811.015625 630.632812 818.140625 613.707031 818.140625 594.109375 C 818.140625 575.40625 811.015625 558.480469 798.542969 546.007812 Z M 798.542969 546.007812 " fill-opacity="1" fill-rule="nonzero"/></g></svg>