<?xml version="1.0" encoding="UTF-8"?>
<svg xmlns="http://www.w3.org/2000/svg" width="960" height="540" viewBox="0 0 960 540" role="img" aria-label="Clean UI">
  <rect width="960" height="540" fill="#f1f5f9"/>
  <text x="32" y="44" font-family="Segoe UI, Arial, sans-serif" font-size="13" fill="#059669" font-weight="700" letter-spacing="0.12em">TEMPLATE · CLEAN UI</text>
  
  <rect x="48" y="72" width="864" height="420" rx="12" fill="#ffffff"/>
  <rect x="48" y="72" width="864" height="56" rx="12" fill="#ffffff"/>
  <rect x="88" y="92" width="120" height="16" rx="4" fill="#059669"/>
  <rect x="720" y="88" width="72" height="28" rx="8" fill="#ecfdf5" stroke="#a7f3d0"/>
  <rect x="88" y="160" width="200" height="280" rx="10" fill="#f8fafc" stroke="#e2e8f0"/>
  <rect x="312" y="160" width="560" height="128" rx="10" fill="#f8fafc" stroke="#e2e8f0"/>
  <rect x="336" y="188" width="200" height="12" rx="6" fill="#0f172a"/>
  <rect x="336" y="212" width="320" height="8" rx="4" fill="#94a3b8"/>
  <rect x="312" y="312" width="268" height="128" rx="10" fill="#f8fafc" stroke="#e2e8f0"/>
  <rect x="604" y="312" width="268" height="128" rx="10" fill="#f8fafc" stroke="#e2e8f0"/>
  <rect x="0" y="536" width="960" height="4" fill="#059669" opacity="0.85"/>
</svg>
